<?xml version="1.0" encoding="UTF-8"?>
<svg class="topography-shape js-shape" width="1200px" height="580px" version="1.1" viewBox="0 0 1200 580" xmlns="http://www.w3.org/2000/svg" xmlns:cc="http://creativecommons.org/ns#" xmlns:dc="http://purl.org/dc/elements/1.1/" xmlns:rdf="http://www.w3.org/1999/02/22-rdf-syntax-ns#">
 <metadata>
  <rdf:RDF>
   <cc:Work rdf:about="">
    <dc:format>image/svg+xml</dc:format>
    <dc:type rdf:resource="http://purl.org/dc/dcmitype/StillImage"/>
    <dc:title/>
   </cc:Work>
  </rdf:RDF>
 </metadata>
 <g>
  <path d="m447.78 34.372c28.692 61.724 23.266 100.42-16.275 116.09-59.313 23.508-200.35 32.911-259.3 83.906-58.95 50.994-238.7 11.572-269.44-75.95-30.741-87.522-86.091-222.42 205.77-222.42 194.58 0 307.65 32.79 339.24 98.372z" fill="#fffa72"/>
  <path d="m869.99 156.24c-19.444 172.83-97.196 281.18-233.25 325.06-204.08 65.822-614.17 92.151-861.68 234.94-247.5 142.78-687.06 32.402-631.65-212.66s118.51-622.78 935.72-622.78c544.81 0 808.42 91.812 790.85 275.44z" fill="#f1dadf" stroke-width="2.8"/>
  <path d="m838.33 146.09c-9.1147 163.57-76.878 266.12-203.28 307.65-189.61 62.296-576.32 87.214-802.89 222.35-226.56 135.13-648.51 30.666-609.24-201.27s78.693-589.42 852.13-589.42c515.63 0 770.05 86.894 763.28 260.69z" fill="#eac6d0" stroke-width="2.65"/>
  <path d="m805.86 135.93c-0.226 154.31-58.904 251.06-176.03 290.24-175.69 58.77-539.23 82.278-746.06 209.76-206.82 127.48-610.23 28.93-585.06-189.88 25.178-218.8 44.068-556.06 773.72-556.06 486.44 0 730.91 81.975 733.42 245.93z" fill="#e2b3c2" stroke-width="2.5"/>
  <path d="m772.66 125.77c7.3439 145.05-43.076 235.99-151.25 272.82-162.27 55.244-502.85 77.341-691.03 197.18-188.17 119.84-572.2 27.194-559.25-178.48s14.194-522.69 700.07-522.69c457.25 0 691.07 77.056 701.46 231.17z" fill="#da9fb3" stroke-width="2.35"/>
  <path d="m738.78 115.62c13.698 135.79-29.226 220.93-128.77 255.41-149.31 51.718-467.12 72.404-637.64 184.59-170.52 112.19-534.4 25.458-531.95-167.09s-11.297-489.33 630.8-489.33c428.07 0 650.58 72.138 667.56 216.42z" fill="#d28ba4" stroke-width="2.2"/>
  <path d="m704.27 105.46c18.922 126.53-17.214 205.87-108.4 237.99-136.79 48.191-431.98 67.468-585.8 172.01-153.81 104.54-496.81 23.723-503.26-155.7s-32.719-455.97 565.6-455.97c398.88 0 609.5 67.22 631.86 201.66z" fill="#cb7795" stroke-width="2.05"/>
  <path d="m669.17 95.307c23.091 117.28-6.9198 190.8-90.026 220.58-124.66 44.665-397.41 62.531-535.38 159.42-137.97 96.889-459.42 21.987-473.27-144.3-13.85-166.29-50.335-422.6 504.2-422.6 369.69 0 567.85 62.301 594.47 186.91z" fill="#c36386" stroke-width="1.9"/>
  <path d="m633.52 85.151c26.264 108.02 1.7552 175.74-73.522 203.16-112.92 41.139-363.38 57.594-486.33 146.84-122.95 89.24-422.21 20.251-442.05-132.91s-64.365-389.24 446.39-389.24c340.51 0 525.67 57.382 555.5 172.15z" fill="#bb4f77" stroke-width="1.75"/>
  <path d="m597.34 74.995c28.494 98.758 8.8943 160.68-58.793 185.75-101.53 37.613-329.84 52.658-438.55 134.25-108.71 81.59-385.18 18.515-409.67-121.52-24.494-140.04-74.994-355.88 391.98-355.88 311.32 0 483 52.464 515.03 157.4z" fill="#b33c69" stroke-width="1.6"/>
  <path d="m560.66 64.839c29.82 89.5 14.566 145.61-45.761 168.34-90.491 34.087-296.79 47.721-392 121.66-95.212 73.941-348.32 16.779-376.19-110.13s-82.371-322.51 340.83-322.51c282.14 0 439.84 47.546 473.12 142.64z" fill="#ac285a" stroke-width="1.45"/>
  <path d="m523.5 54.684c30.279 80.241 18.824 130.55-34.362 150.92-79.781 30.56-264.19 42.784-346.63 109.08-82.435 66.292-311.62 15.044-341.63-98.735-30.009-113.78-86.62-289.15 292.8-289.15 252.95 0 396.22 42.627 429.82 127.88z" fill="#a4144b" stroke-width="1.3"/>
  <path d="m485.87 44.528c29.897 70.983 21.714 115.49-24.545 133.51-69.39 27.034-232.05 37.848-302.41 96.492-70.353 58.643-275.08 13.308-306.04-87.342-30.958-100.65-87.836-255.79 247.8-255.79 223.76 0 352.16 37.708 385.19 113.13z" fill="#9c003c" stroke-width="1.15"/>
 </g>
</svg>
